<?xml version="1.0" standalone="no"?>
<!DOCTYPE svg PUBLIC "-//W3C//DTD SVG 20010904//EN"
 "http://www.w3.org/TR/2001/REC-SVG-20010904/DTD/svg10.dtd">
<svg version="1.0" xmlns="http://www.w3.org/2000/svg"
 width="215.000000pt" height="216.000000pt" viewBox="0 0 215.000000 216.000000"
 preserveAspectRatio="xMidYMid meet">
<metadata>
Created by potrace 1.15, written by Peter Selinger 2001-2017
</metadata>
<g transform="translate(0.000000,216.000000) scale(0.100000,-0.100000)"
fill="#000000" stroke="none">
<path d="M997 1912 l-87 -87 90 -90 90 -90 90 90 90 90 -87 87 c-48 49 -90 88
-93 88 -3 0 -45 -39 -93 -88z"/>
<path d="M893 1338 l-193 -193 -190 190 -190 190 0 -110 0 -110 135 -135 135
-136 -45 -44 -45 -44 -90 89 -90 90 0 -111 0 -110 35 -34 35 -34 -35 -36 -35
-36 0 -109 0 -110 385 385 385 385 385 -385 385 -385 0 110 0 109 -37 38 -37
38 37 38 37 38 0 104 0 105 -90 -90 -90 -89 -45 44 -45 44 135 136 135 135 0
110 0 110 -190 -190 -190 -190 -193 193 c-106 105 -194 192 -197 192 -3 0 -92
-87 -197 -192z"/>
<path d="M795 840 l-290 -290 106 0 107 0 118 116 c66 63 149 145 187 182 l67
67 183 -183 182 -182 110 0 110 0 -290 290 c-159 160 -292 290 -295 290 -3 0
-136 -130 -295 -290z"/>
<path d="M1000 635 l-85 -85 175 0 175 0 -85 85 c-47 47 -87 85 -90 85 -3 0
-43 -38 -90 -85z"/>
<path d="M320 360 l0 -80 770 0 770 0 0 80 0 80 -770 0 -770 0 0 -80z"/>
</g>
</svg>
